# xmcd CD database file
#
# Track frame offsets:
#	150
#	17491
#	33524
#	49033
#	66361
#	80238
#	98587
#	112613
#	128243
#	145745
#	162407
#	176480
#	193854
#	208421
#	223941
#	240924
#
# Disc length: 3413 seconds
#
# Revision: 8
# Processed by: cddbd v1.5.2PL0 Copyright (c) Steve Scherf et al.
# Submitted via: CDex 1.77
#
DISCID=e20d5310
DTITLE=Andrea Berg - Die Neue Best Of
DYEAR=0
DGENRE=Blues
TTITLE0=Wie Viele Trume Hab Ich Getrumt
TTITLE1=Doch Trumen Will Ich Nur Mit Dir Allein
TTITLE2=Lass Mich Jetzt Noch Nicht Gehn
TTITLE3=Im Feuer Der Nacht
TTITLE4=Warum
TTITLE5=Mama
TTITLE6=Und Heute Abend Geh Ich Tanzen
TTITLE7=Spiel Noch Einmal Nur Fr Mich
TTITLE8=Ein Tag Mit Dir Im Paradies
TTITLE9=Heut Will Ich Nur Mit Dir
TTITLE10=Du
TTITLE11=Ich Wei, Da Du Mich Belgst
TTITLE12=Ein Bisschen Wahnsinn
TTITLE13=Wenn Dein Mund Mich Ksst
TTITLE14=Ein Schiff Wird Kommen
TTITLE15=Nein, Das Trum Ich Nicht Allein
EXTD=YEAR: 0
EXTT0=
EXTT1=
EXTT2=
EXTT3=
EXTT4=
EXTT5=
EXTT6=
EXTT7=
EXTT8=
EXTT9=
EXTT10=
EXTT11=
EXTT12=
EXTT13=
EXTT14=
EXTT15=
PLAYORDER=
